<?xml version="1.0" encoding="UTF-8" standalone="no"?>
<!DOCTYPE svg PUBLIC "-//W3C//DTD SVG 1.1//EN"
 "http://www.w3.org/Graphics/SVG/1.1/DTD/svg11.dtd">
<!-- Generated by graphviz version 2.43.0 (0)
 -->
<!-- Title: ERD Pages: 1 -->
<svg width="968pt" height="1320pt"
 viewBox="0.00 0.00 968.00 1320.00" xmlns="http://www.w3.org/2000/svg" xmlns:xlink="http://www.w3.org/1999/xlink">
<g id="graph0" class="graph" transform="scale(1 1) rotate(0) translate(4 1316)">
<title>ERD</title>
<polygon fill="white" stroke="transparent" points="-4,4 -4,-1316 964,-1316 964,4 -4,4"/>
<g id="clust1" class="cluster">
<title>cluster_1</title>
<path fill="#f8f8f8" stroke="#eeeeee" d="M699.5,-1078C699.5,-1078 940,-1078 940,-1078 946,-1078 952,-1084 952,-1090 952,-1090 952,-1198 952,-1198 952,-1204 946,-1210 940,-1210 940,-1210 699.5,-1210 699.5,-1210 693.5,-1210 687.5,-1204 687.5,-1198 687.5,-1198 687.5,-1090 687.5,-1090 687.5,-1084 693.5,-1078 699.5,-1078"/>
<text text-anchor="middle" x="819.75" y="-1194.8" font-family="Times,serif" font-size="14.00">Identity &amp; Profiles</text>
</g>
<g id="clust2" class="cluster">
<title>cluster_2</title>
<path fill="#f8f8f8" stroke="#eeeeee" d="M257.5,-883C257.5,-883 745.5,-883 745.5,-883 751.5,-883 757.5,-889 757.5,-895 757.5,-895 757.5,-1058 757.5,-1058 757.5,-1064 751.5,-1070 745.5,-1070 745.5,-1070 257.5,-1070 257.5,-1070 251.5,-1070 245.5,-1064 245.5,-1058 245.5,-1058 245.5,-895 245.5,-895 245.5,-889 251.5,-883 257.5,-883"/>
<text text-anchor="middle" x="501.5" y="-1054.8" font-family="Times,serif" font-size="14.00">Marketplace Core</text>
</g>
<g id="clust3" class="cluster">
<title>cluster_3</title>
<path fill="#f8f8f8" stroke="#eeeeee" d="M252,-1117C252,-1117 563,-1117 563,-1117 569,-1117 575,-1123 575,-1129 575,-1129 575,-1292 575,-1292 575,-1298 569,-1304 563,-1304 563,-1304 252,-1304 252,-1304 246,-1304 240,-1298 240,-1292 240,-1292 240,-1129 240,-1129 240,-1123 246,-1117 252,-1117"/>
<text text-anchor="middle" x="407.5" y="-1288.8" font-family="Times,serif" font-size="14.00">Financial</text>
</g>
<g id="clust4" class="cluster">
<title>cluster_4</title>
<path fill="#f8f8f8" stroke="#eeeeee" d="M228,-358C228,-358 374,-358 374,-358 380,-358 386,-364 386,-370 386,-370 386,-863 386,-863 386,-869 380,-875 374,-875 374,-875 228,-875 228,-875 222,-875 216,-869 216,-863 216,-863 216,-370 216,-370 216,-364 222,-358 228,-358"/>
<text text-anchor="middle" x="301" y="-859.8" font-family="Times,serif" font-size="14.00">Work Tracking</text>
</g>
<g id="clust5" class="cluster">
<title>cluster_5</title>
<path fill="#f8f8f8" stroke="#eeeeee" d="M226.5,-108C226.5,-108 375.5,-108 375.5,-108 381.5,-108 387.5,-114 387.5,-120 387.5,-120 387.5,-338 387.5,-338 387.5,-344 381.5,-350 375.5,-350 375.5,-350 226.5,-350 226.5,-350 220.5,-350 214.5,-344 214.5,-338 214.5,-338 214.5,-120 214.5,-120 214.5,-114 220.5,-108 226.5,-108"/>
<text text-anchor="middle" x="301" y="-334.8" font-family="Times,serif" font-size="14.00">Messaging &amp; Support</text>
</g>
<g id="clust6" class="cluster">
<title>cluster_6</title>
<path fill="#f8f8f8" stroke="#eeeeee" d="M659,-8C659,-8 786,-8 786,-8 792,-8 798,-14 798,-20 798,-20 798,-458 798,-458 798,-464 792,-470 786,-470 786,-470 659,-470 659,-470 653,-470 647,-464 647,-458 647,-458 647,-20 647,-20 647,-14 653,-8 659,-8"/>
<text text-anchor="middle" x="722.5" y="-454.8" font-family="Times,serif" font-size="14.00">Governance &amp; Ops</text>
</g>
<g id="clust7" class="cluster">
<title>cluster_7</title>
<path fill="#f8f8f8" stroke="#eeeeee" d="M20,-633C20,-633 134,-633 134,-633 140,-633 146,-639 146,-645 146,-645 146,-1028 146,-1028 146,-1034 140,-1040 134,-1040 134,-1040 20,-1040 20,-1040 14,-1040 8,-1034 8,-1028 8,-1028 8,-645 8,-645 8,-639 14,-633 20,-633"/>
<text text-anchor="middle" x="77" y="-1024.8" font-family="Times,serif" font-size="14.00">AI</text>
</g>
<!-- session -->
<g id="node1" class="node">
<title>session</title>
<polygon fill="none" stroke="black" points="695.5,-1087 695.5,-1123 749.5,-1123 749.5,-1087 695.5,-1087"/>
<text text-anchor="middle" x="722.5" y="-1102.5" font-family="Times,serif" font-size="10.00">session</text>
</g>
<!-- user -->
<g id="node2" class="node">
<title>user</title>
<polygon fill="none" stroke="black" points="890,-1087 890,-1123 944,-1123 944,-1087 890,-1087"/>
<text text-anchor="middle" x="917" y="-1102.5" font-family="Times,serif" font-size="10.00">user</text>
</g>
<!-- session&#45;&gt;user -->
<g id="edge23" class="edge">
<title>session&#45;&gt;user</title>
<path fill="none" stroke="black" d="M749.86,-1105C783.56,-1105 842.05,-1105 879.87,-1105"/>
<polygon fill="black" stroke="black" points="879.96,-1108.5 889.96,-1105 879.96,-1101.5 879.96,-1108.5"/>
<text text-anchor="middle" x="840" y="-1107.8" font-family="Times,serif" font-size="9.00">user_id</text>
</g>
<!-- worker -->
<g id="node3" class="node">
<title>worker</title>
<polygon fill="none" stroke="black" points="695.5,-1142 695.5,-1178 749.5,-1178 749.5,-1142 695.5,-1142"/>
<text text-anchor="middle" x="722.5" y="-1157.5" font-family="Times,serif" font-size="10.00">worker</text>
</g>
<!-- worker&#45;&gt;user -->
<g id="edge30" class="edge">
<title>worker&#45;&gt;user</title>
<path fill="none" stroke="black" d="M749.61,-1153.12C779.33,-1145.21 829.31,-1131.68 872,-1119 874.74,-1118.19 877.57,-1117.33 880.41,-1116.45"/>
<polygon fill="black" stroke="black" points="881.49,-1119.78 889.99,-1113.46 879.4,-1113.1 881.49,-1119.78"/>
<text text-anchor="middle" x="840" y="-1138.8" font-family="Times,serif" font-size="9.00">user_id</text>
</g>
<!-- facility -->
<g id="node4" class="node">
<title>facility</title>
<polygon fill="none" stroke="black" points="695.5,-999 695.5,-1035 749.5,-1035 749.5,-999 695.5,-999"/>
<text text-anchor="middle" x="722.5" y="-1014.5" font-family="Times,serif" font-size="10.00">facility</text>
</g>
<!-- facility&#45;&gt;user -->
<g id="edge7" class="edge">
<title>facility&#45;&gt;user</title>
<path fill="none" stroke="black" d="M749.86,-1029.05C783.85,-1044.59 843.05,-1071.65 880.84,-1088.93"/>
<polygon fill="black" stroke="black" points="879.41,-1092.12 889.96,-1093.09 882.32,-1085.75 879.41,-1092.12"/>
<text text-anchor="middle" x="840" y="-1085.8" font-family="Times,serif" font-size="9.00">employer_id</text>
</g>
<!-- job_categories -->
<g id="node5" class="node">
<title>job_categories</title>
<polygon fill="none" stroke="black" points="256,-1002 256,-1038 346,-1038 346,-1002 256,-1002"/>
<text text-anchor="middle" x="301" y="-1017.5" font-family="Times,serif" font-size="10.00">job_categories</text>
</g>
<!-- shift -->
<g id="node6" class="node">
<title>shift</title>
<polygon fill="none" stroke="black" points="500,-946 500,-982 554,-982 554,-946 500,-946"/>
<text text-anchor="middle" x="527" y="-961.5" font-family="Times,serif" font-size="10.00">shift</text>
</g>
<!-- shift&#45;&gt;user -->
<g id="edge25" class="edge">
<title>shift&#45;&gt;user</title>
<path fill="none" stroke="black" d="M554.31,-959.78C604.24,-953 715.17,-943.81 798,-980 843.85,-1000.03 880.25,-1047.44 899.92,-1077.77"/>
<polygon fill="black" stroke="black" points="897.19,-1080 905.48,-1086.59 903.11,-1076.26 897.19,-1080"/>
<text text-anchor="middle" x="722.5" y="-982.8" font-family="Times,serif" font-size="9.00">employer_id</text>
</g>
<!-- shift&#45;&gt;worker -->
<g id="edge26" class="edge">
<title>shift&#45;&gt;worker</title>
<path fill="none" stroke="black" d="M550.66,-982.35C579.38,-1006.09 626.44,-1046.81 637,-1067 650.75,-1093.29 628.19,-1110.06 647,-1133 656.48,-1144.56 671.32,-1151.17 685.28,-1154.95"/>
<polygon fill="black" stroke="black" points="684.66,-1158.4 695.19,-1157.23 686.24,-1151.58 684.66,-1158.4"/>
<text text-anchor="middle" x="611" y="-1069.8" font-family="Times,serif" font-size="9.00">worker_id</text>
</g>
<!-- shift&#45;&gt;facility -->
<g id="edge24" class="edge">
<title>shift&#45;&gt;facility</title>
<path fill="none" stroke="black" d="M554.09,-971.38C563.79,-974.11 574.89,-977.21 585,-980 619,-989.38 657.82,-999.88 685.35,-1007.3"/>
<polygon fill="black" stroke="black" points="684.75,-1010.76 695.31,-1009.98 686.57,-1004 684.75,-1010.76"/>
<text text-anchor="middle" x="611" y="-995.8" font-family="Times,serif" font-size="9.00">facility_id</text>
</g>
<!-- shift_templates -->
<g id="node7" class="node">
<title>shift_templates</title>
<polygon fill="none" stroke="black" points="253.5,-947 253.5,-983 348.5,-983 348.5,-947 253.5,-947"/>
<text text-anchor="middle" x="301" y="-962.5" font-family="Times,serif" font-size="10.00">shift_templates</text>
</g>
<!-- worker_shift -->
<g id="node8" class="node">
<title>worker_shift</title>
<polygon fill="none" stroke="black" points="261,-892 261,-928 341,-928 341,-892 261,-892"/>
<text text-anchor="middle" x="301" y="-907.5" font-family="Times,serif" font-size="10.00">worker_shift</text>
</g>
<!-- worker_shift&#45;&gt;worker -->
<g id="edge32" class="edge">
<title>worker_shift&#45;&gt;worker</title>
<path fill="none" stroke="black" d="M341.14,-913.73C357.81,-917.35 376.02,-924.39 387.5,-938 406.04,-959.98 380.34,-978.56 397,-1002 415.16,-1027.56 618.3,-1120.35 647,-1133 659.42,-1138.47 673.32,-1143.74 685.73,-1148.14"/>
<polygon fill="black" stroke="black" points="684.71,-1151.49 695.3,-1151.47 687.01,-1144.88 684.71,-1151.49"/>
<text text-anchor="middle" x="527" y="-1101.8" font-family="Times,serif" font-size="9.00">worker_id</text>
</g>
<!-- worker_shift&#45;&gt;shift -->
<g id="edge31" class="edge">
<title>worker_shift&#45;&gt;shift</title>
<path fill="none" stroke="black" d="M341.37,-914.49C357.68,-918.28 375.54,-925.23 387.5,-938 399.11,-950.39 383.58,-964.59 397,-975 423.21,-995.33 462.08,-988.56 490.3,-979.18"/>
<polygon fill="black" stroke="black" points="491.55,-982.45 499.8,-975.8 489.2,-975.86 491.55,-982.45"/>
<text text-anchor="middle" x="433" y="-990.8" font-family="Times,serif" font-size="9.00">shift_id</text>
</g>
<!-- invoice -->
<g id="node9" class="node">
<title>invoice</title>
<polygon fill="none" stroke="black" points="274,-1236 274,-1272 328,-1272 328,-1236 274,-1236"/>
<text text-anchor="middle" x="301" y="-1251.5" font-family="Times,serif" font-size="10.00">invoice</text>
</g>
<!-- subscription -->
<g id="node12" class="node">
<title>subscription</title>
<polygon fill="none" stroke="black" points="487,-1236 487,-1272 567,-1272 567,-1236 487,-1236"/>
<text text-anchor="middle" x="527" y="-1251.5" font-family="Times,serif" font-size="10.00">subscription</text>
</g>
<!-- invoice&#45;&gt;subscription -->
<g id="edge10" class="edge">
<title>invoice&#45;&gt;subscription</title>
<path fill="none" stroke="black" d="M328.13,-1254C364.51,-1254 431.07,-1254 476.88,-1254"/>
<polygon fill="black" stroke="black" points="476.9,-1257.5 486.9,-1254 476.9,-1250.5 476.9,-1257.5"/>
<text text-anchor="middle" x="433" y="-1256.8" font-family="Times,serif" font-size="9.00">subscription_id</text>
</g>
<!-- payment_method -->
<g id="node10" class="node">
<title>payment_method</title>
<polygon fill="none" stroke="black" points="248,-1181 248,-1217 354,-1217 354,-1181 248,-1181"/>
<text text-anchor="middle" x="301" y="-1196.5" font-family="Times,serif" font-size="10.00">payment_method</text>
</g>
<!-- payment_method&#45;&gt;user -->
<g id="edge17" class="edge">
<title>payment_method&#45;&gt;user</title>
<path fill="none" stroke="black" d="M354.08,-1205.39C445.57,-1214.97 640.41,-1227.95 798,-1188 833.84,-1178.91 842.25,-1171.95 872,-1150 879.58,-1144.41 887.05,-1137.47 893.62,-1130.74"/>
<polygon fill="black" stroke="black" points="896.58,-1132.7 900.87,-1123.02 891.48,-1127.91 896.58,-1132.7"/>
<text text-anchor="middle" x="611" y="-1216.8" font-family="Times,serif" font-size="9.00">user_id</text>
</g>
<!-- payout -->
<g id="node11" class="node">
<title>payout</title>
<polygon fill="none" stroke="black" points="274,-1126 274,-1162 328,-1162 328,-1126 274,-1126"/>
<text text-anchor="middle" x="301" y="-1141.5" font-family="Times,serif" font-size="10.00">payout</text>
</g>
<!-- payout&#45;&gt;shift -->
<g id="edge18" class="edge">
<title>payout&#45;&gt;shift</title>
<path fill="none" stroke="black" d="M324.71,-1125.75C365.23,-1093.19 450.01,-1025.07 495.54,-988.48"/>
<polygon fill="black" stroke="black" points="497.96,-991.02 503.56,-982.03 493.57,-985.57 497.96,-991.02"/>
<text text-anchor="middle" x="433" y="-1066.8" font-family="Times,serif" font-size="9.00">shift_id</text>
</g>
<!-- subscription&#45;&gt;user -->
<g id="edge28" class="edge">
<title>subscription&#45;&gt;user</title>
<path fill="none" stroke="black" d="M567.01,-1262.39C636.17,-1274.88 781.51,-1290.07 872,-1221 899.21,-1200.23 909.59,-1160.55 913.55,-1133.44"/>
<polygon fill="black" stroke="black" points="917.04,-1133.74 914.82,-1123.38 910.1,-1132.87 917.04,-1133.74"/>
<text text-anchor="middle" x="722.5" y="-1275.8" font-family="Times,serif" font-size="9.00">employer_id</text>
</g>
<!-- credential -->
<g id="node13" class="node">
<title>credential</title>
<polygon fill="none" stroke="black" points="267,-587 267,-623 335,-623 335,-587 267,-587"/>
<text text-anchor="middle" x="301" y="-602.5" font-family="Times,serif" font-size="10.00">credential</text>
</g>
<!-- credential&#45;&gt;user -->
<g id="edge4" class="edge">
<title>credential&#45;&gt;user</title>
<path fill="none" stroke="black" d="M335.01,-607.6C353.14,-610.8 374.51,-617.8 387.5,-633 404.75,-653.19 379.31,-672.19 397,-692 427.82,-726.5 755.83,-784.97 798,-804 833.73,-820.12 850.39,-819.29 872,-852 896.18,-888.61 909.19,-1018.47 913.91,-1076.55"/>
<polygon fill="black" stroke="black" points="910.45,-1077.15 914.72,-1086.85 917.42,-1076.6 910.45,-1077.15"/>
<text text-anchor="middle" x="611" y="-765.8" font-family="Times,serif" font-size="9.00">user_id</text>
</g>
<!-- dispute -->
<g id="node14" class="node">
<title>dispute</title>
<polygon fill="none" stroke="black" points="273.5,-752 273.5,-788 328.5,-788 328.5,-752 273.5,-752"/>
<text text-anchor="middle" x="301" y="-767.5" font-family="Times,serif" font-size="10.00">dispute</text>
</g>
<!-- dispute&#45;&gt;shift -->
<g id="edge6" class="edge">
<title>dispute&#45;&gt;shift</title>
<path fill="none" stroke="black" d="M328.76,-771.26C348.23,-773.71 373.54,-780.37 387.5,-798 402.87,-817.41 381.44,-889.75 397,-909 418.03,-935.02 438.32,-917.64 469,-931 476.37,-934.21 483.99,-938.15 491.17,-942.17"/>
<polygon fill="black" stroke="black" points="489.57,-945.28 499.98,-947.26 493.07,-939.22 489.57,-945.28"/>
<text text-anchor="middle" x="433" y="-933.8" font-family="Times,serif" font-size="9.00">shift_id</text>
</g>
<!-- gps_log -->
<g id="node15" class="node">
<title>gps_log</title>
<polygon fill="none" stroke="black" points="273,-697 273,-733 329,-733 329,-697 273,-697"/>
<text text-anchor="middle" x="301" y="-712.5" font-family="Times,serif" font-size="10.00">gps_log</text>
</g>
<!-- gps_log&#45;&gt;user -->
<g id="edge9" class="edge">
<title>gps_log&#45;&gt;user</title>
<path fill="none" stroke="black" d="M329.15,-716.33C348.56,-718.82 373.61,-725.51 387.5,-743 402.48,-761.87 379.81,-834.12 397,-851 428.87,-882.3 758.94,-857.33 798,-879 872.08,-920.09 901.35,-1026.06 911.4,-1076.93"/>
<polygon fill="black" stroke="black" points="907.99,-1077.72 913.26,-1086.91 914.87,-1076.43 907.99,-1077.72"/>
<text text-anchor="middle" x="611" y="-870.8" font-family="Times,serif" font-size="9.00">user_id</text>
</g>
<!-- gps_log&#45;&gt;shift -->
<g id="edge8" class="edge">
<title>gps_log&#45;&gt;shift</title>
<path fill="none" stroke="black" d="M329.24,-716.26C348.69,-718.72 373.76,-725.39 387.5,-743 405.73,-766.36 378.54,-852.83 397,-876 417.85,-902.17 440.97,-879.73 469,-898 484.61,-908.17 498.38,-923.81 508.48,-937.31"/>
<polygon fill="black" stroke="black" points="505.89,-939.71 514.56,-945.8 511.58,-935.63 505.89,-939.71"/>
<text text-anchor="middle" x="433" y="-900.8" font-family="Times,serif" font-size="9.00">shift_id</text>
</g>
<!-- overtime_log -->
<g id="node16" class="node">
<title>overtime_log</title>
<polygon fill="none" stroke="black" points="259.5,-642 259.5,-678 342.5,-678 342.5,-642 259.5,-642"/>
<text text-anchor="middle" x="301" y="-657.5" font-family="Times,serif" font-size="10.00">overtime_log</text>
</g>
<!-- overtime_log&#45;&gt;user -->
<g id="edge16" class="edge">
<title>overtime_log&#45;&gt;user</title>
<path fill="none" stroke="black" d="M342.76,-664.73C358.72,-668.57 375.94,-675.5 387.5,-688 399.62,-701.09 384.86,-713.92 397,-727 415.87,-747.33 853.59,-860.25 872,-881 897.47,-909.71 909.58,-1023.17 913.97,-1076.73"/>
<polygon fill="black" stroke="black" points="910.5,-1077.2 914.77,-1086.89 917.48,-1076.65 910.5,-1077.2"/>
<text text-anchor="middle" x="611" y="-805.8" font-family="Times,serif" font-size="9.00">user_id</text>
</g>
<!-- overtime_log&#45;&gt;shift -->
<g id="edge15" class="edge">
<title>overtime_log&#45;&gt;shift</title>
<path fill="none" stroke="black" d="M342.94,-663.63C359.33,-667.26 376.82,-674.34 387.5,-688 405.34,-710.82 381.92,-793.27 397,-818 416.53,-850.02 443,-834.97 469,-862 489.73,-883.55 505.49,-914.11 515.12,-936.15"/>
<polygon fill="black" stroke="black" points="512.01,-937.76 519.12,-945.62 518.46,-935.04 512.01,-937.76"/>
<text text-anchor="middle" x="433" y="-864.8" font-family="Times,serif" font-size="9.00">shift_id</text>
</g>
<!-- rating -->
<g id="node17" class="node">
<title>rating</title>
<polygon fill="none" stroke="black" points="274,-477 274,-513 328,-513 328,-477 274,-477"/>
<text text-anchor="middle" x="301" y="-492.5" font-family="Times,serif" font-size="10.00">rating</text>
</g>
<!-- rating&#45;&gt;user -->
<g id="edge20" class="edge">
<title>rating&#45;&gt;user</title>
<path fill="none" stroke="black" d="M328.27,-496.28C347.75,-498.72 373.29,-505.36 387.5,-523 400.53,-539.18 382.3,-601.32 397,-616 472.06,-690.98 797.03,-588.93 872,-664 901.22,-693.26 912.39,-984.39 915.22,-1076.92"/>
<polygon fill="black" stroke="black" points="911.73,-1077.06 915.52,-1086.95 918.72,-1076.85 911.73,-1077.06"/>
<text text-anchor="middle" x="611" y="-644.8" font-family="Times,serif" font-size="9.00">rated_id</text>
</g>
<!-- rating&#45;&gt;user -->
<g id="edge21" class="edge">
<title>rating&#45;&gt;user</title>
<path fill="none" stroke="black" d="M328.38,-496.19C347.93,-498.58 373.5,-505.2 387.5,-523 404.04,-544.02 380.17,-622.21 397,-643 467.14,-729.62 809.08,-712 872,-804 902.15,-848.08 912.12,-1010.37 914.98,-1076.59"/>
<polygon fill="black" stroke="black" points="911.49,-1076.87 915.4,-1086.71 918.48,-1076.58 911.49,-1076.87"/>
<text text-anchor="middle" x="611" y="-722.8" font-family="Times,serif" font-size="9.00">rater_id</text>
</g>
<!-- rating&#45;&gt;shift -->
<g id="edge19" class="edge">
<title>rating&#45;&gt;shift</title>
<path fill="none" stroke="black" d="M328.2,-495.97C347.9,-498.24 373.78,-504.78 387.5,-523 405.02,-546.27 379.25,-761.9 397,-785 417.39,-811.53 444.74,-783.96 469,-807 505.3,-841.47 518.56,-900.85 523.35,-935.87"/>
<polygon fill="black" stroke="black" points="519.89,-936.4 524.58,-945.9 526.84,-935.54 519.89,-936.4"/>
<text text-anchor="middle" x="433" y="-809.8" font-family="Times,serif" font-size="9.00">shift_id</text>
</g>
<!-- requirement_types -->
<g id="node18" class="node">
<title>requirement_types</title>
<polygon fill="none" stroke="black" points="244.5,-532 244.5,-568 357.5,-568 357.5,-532 244.5,-532"/>
<text text-anchor="middle" x="301" y="-547.5" font-family="Times,serif" font-size="10.00">requirement_types</text>
</g>
<!-- shift_cancellation -->
<g id="node19" class="node">
<title>shift_cancellation</title>
<polygon fill="none" stroke="black" points="248.5,-807 248.5,-843 353.5,-843 353.5,-807 248.5,-807"/>
<text text-anchor="middle" x="301" y="-822.5" font-family="Times,serif" font-size="10.00">shift_cancellation</text>
</g>
<!-- shift_cancellation&#45;&gt;shift -->
<g id="edge27" class="edge">
<title>shift_cancellation&#45;&gt;shift</title>
<path fill="none" stroke="black" d="M345.63,-843.09C361.22,-851.71 377.42,-863.57 387.5,-879 402.98,-902.71 377.17,-921.79 397,-942 409.6,-954.84 455.97,-960.21 489.52,-962.44"/>
<polygon fill="black" stroke="black" points="489.71,-965.96 499.9,-963.06 490.12,-958.97 489.71,-965.96"/>
<text text-anchor="middle" x="433" y="-962.8" font-family="Times,serif" font-size="9.00">shift_id</text>
</g>
<!-- shift_requirements -->
<g id="node20" class="node">
<title>shift_requirements</title>
<polygon fill="none" stroke="black" points="244.5,-422 244.5,-458 357.5,-458 357.5,-422 244.5,-422"/>
<text text-anchor="middle" x="301" y="-437.5" font-family="Times,serif" font-size="10.00">shift_requirements</text>
</g>
<!-- worker_shift_requirements -->
<g id="node21" class="node">
<title>worker_shift_requirements</title>
<polygon fill="none" stroke="black" points="224,-367 224,-403 378,-403 378,-367 224,-367"/>
<text text-anchor="middle" x="301" y="-382.5" font-family="Times,serif" font-size="10.00">worker_shift_requirements</text>
</g>
<!-- email_template -->
<g id="node22" class="node">
<title>email_template</title>
<polygon fill="none" stroke="black" points="253.5,-282 253.5,-318 348.5,-318 348.5,-282 253.5,-282"/>
<text text-anchor="middle" x="301" y="-297.5" font-family="Times,serif" font-size="10.00">email_template</text>
</g>
<!-- message -->
<g id="node23" class="node">
<title>message</title>
<polygon fill="none" stroke="black" points="270,-117 270,-153 332,-153 332,-117 270,-117"/>
<text text-anchor="middle" x="301" y="-132.5" font-family="Times,serif" font-size="10.00">message</text>
</g>
<!-- message&#45;&gt;user -->
<g id="edge12" class="edge">
<title>message&#45;&gt;user</title>
<path fill="none" stroke="black" d="M332.34,-140.17C349.58,-144.14 370.96,-150.89 387.5,-162 537.22,-262.56 490.67,-384.04 647,-474 734.9,-524.58 803.71,-437.02 872,-512 910.35,-554.1 915.28,-964.17 915.91,-1076.61"/>
<polygon fill="black" stroke="black" points="912.41,-1076.85 915.96,-1086.83 919.41,-1076.81 912.41,-1076.85"/>
<text text-anchor="middle" x="611" y="-469.8" font-family="Times,serif" font-size="9.00">receiver_id</text>
</g>
<!-- message&#45;&gt;user -->
<g id="edge13" class="edge">
<title>message&#45;&gt;user</title>
<path fill="none" stroke="black" d="M332.01,-136.76C350.7,-139.49 373.72,-146.13 387.5,-162 404.34,-181.39 387.64,-195.09 397,-219 449.25,-352.46 467.11,-399.5 585,-481 694.96,-557.02 788.51,-466.6 872,-571 903.74,-610.69 913.35,-971.69 915.49,-1076.56"/>
<polygon fill="black" stroke="black" points="911.99,-1076.78 915.69,-1086.71 918.99,-1076.64 911.99,-1076.78"/>
<text text-anchor="middle" x="611" y="-507.8" font-family="Times,serif" font-size="9.00">sender_id</text>
</g>
<!-- message&#45;&gt;shift -->
<g id="edge11" class="edge">
<title>message&#45;&gt;shift</title>
<path fill="none" stroke="black" d="M332.36,-136.08C351.44,-138.52 374.77,-145.08 387.5,-162 400.13,-178.79 393.62,-519.27 397,-540 414.53,-647.39 437.37,-669.89 469,-774 486.53,-831.68 506.73,-899.31 517.76,-936.32"/>
<polygon fill="black" stroke="black" points="514.41,-937.33 520.62,-945.91 521.12,-935.33 514.41,-937.33"/>
<text text-anchor="middle" x="433" y="-776.8" font-family="Times,serif" font-size="9.00">shift_id</text>
</g>
<!-- notification -->
<g id="node24" class="node">
<title>notification</title>
<polygon fill="none" stroke="black" points="264,-227 264,-263 338,-263 338,-227 264,-227"/>
<text text-anchor="middle" x="301" y="-242.5" font-family="Times,serif" font-size="10.00">notification</text>
</g>
<!-- notification&#45;&gt;user -->
<g id="edge14" class="edge">
<title>notification&#45;&gt;user</title>
<path fill="none" stroke="black" d="M338.33,-247C356.08,-250.02 376.04,-256.86 387.5,-272 408.03,-299.12 374.01,-552.93 397,-578 468.84,-656.33 797.76,-557.94 872,-634 903,-665.76 913.02,-979.72 915.39,-1076.65"/>
<polygon fill="black" stroke="black" points="911.89,-1076.94 915.63,-1086.86 918.89,-1076.78 911.89,-1076.94"/>
<text text-anchor="middle" x="611" y="-611.8" font-family="Times,serif" font-size="9.00">user_id</text>
</g>
<!-- support_ticket -->
<g id="node25" class="node">
<title>support_ticket</title>
<polygon fill="none" stroke="black" points="256.5,-172 256.5,-208 345.5,-208 345.5,-172 256.5,-172"/>
<text text-anchor="middle" x="301" y="-187.5" font-family="Times,serif" font-size="10.00">support_ticket</text>
</g>
<!-- support_ticket&#45;&gt;user -->
<g id="edge29" class="edge">
<title>support_ticket&#45;&gt;user</title>
<path fill="none" stroke="black" d="M345.86,-193.49C361.49,-197.08 377.65,-203.96 387.5,-217 409.15,-245.64 372.95,-513.35 397,-540 468.34,-619.05 798.4,-526.05 872,-603 904.89,-637.39 913.66,-975.93 915.55,-1076.79"/>
<polygon fill="black" stroke="black" points="912.05,-1076.9 915.73,-1086.84 919.05,-1076.78 912.05,-1076.9"/>
<text text-anchor="middle" x="611" y="-575.8" font-family="Times,serif" font-size="9.00">user_id</text>
</g>
<!-- activity_log -->
<g id="node26" class="node">
<title>activity_log</title>
<polygon fill="none" stroke="black" points="685.5,-292 685.5,-328 759.5,-328 759.5,-292 685.5,-292"/>
<text text-anchor="middle" x="722.5" y="-307.5" font-family="Times,serif" font-size="10.00">activity_log</text>
</g>
<!-- activity_log&#45;&gt;user -->
<g id="edge1" class="edge">
<title>activity_log&#45;&gt;user</title>
<path fill="none" stroke="black" d="M759.66,-311.26C794.49,-314.6 845.65,-325.52 872,-360 916.15,-417.77 916.7,-946.96 916.17,-1076.49"/>
<polygon fill="black" stroke="black" points="912.67,-1076.76 916.12,-1086.77 919.67,-1076.79 912.67,-1076.76"/>
<text text-anchor="middle" x="840" y="-362.8" font-family="Times,serif" font-size="9.00">user_id</text>
</g>
<!-- analytics_event -->
<g id="node27" class="node">
<title>analytics_event</title>
<polygon fill="none" stroke="black" points="675,-127 675,-163 770,-163 770,-127 675,-127"/>
<text text-anchor="middle" x="722.5" y="-142.5" font-family="Times,serif" font-size="10.00">analytics_event</text>
</g>
<!-- analytics_event&#45;&gt;user -->
<g id="edge3" class="edge">
<title>analytics_event&#45;&gt;user</title>
<path fill="none" stroke="black" d="M770.04,-156.03C780.01,-159.92 789.96,-165.11 798,-172 849.95,-216.52 853.21,-241.21 872,-307 914.54,-455.93 916.35,-952.04 916.11,-1076.49"/>
<polygon fill="black" stroke="black" points="912.61,-1076.72 916.09,-1086.73 919.61,-1076.73 912.61,-1076.72"/>
<text text-anchor="middle" x="840" y="-309.8" font-family="Times,serif" font-size="9.00">user_id</text>
</g>
<!-- data_export -->
<g id="node28" class="node">
<title>data_export</title>
<polygon fill="none" stroke="black" points="684,-402 684,-438 761,-438 761,-402 684,-402"/>
<text text-anchor="middle" x="722.5" y="-417.5" font-family="Times,serif" font-size="10.00">data_export</text>
</g>
<!-- data_export&#45;&gt;user -->
<g id="edge5" class="edge">
<title>data_export&#45;&gt;user</title>
<path fill="none" stroke="black" d="M761.1,-419.87C795.73,-421.97 845.6,-431.06 872,-464 910.73,-512.32 915.38,-959.14 915.93,-1076.75"/>
<polygon fill="black" stroke="black" points="912.43,-1076.79 915.97,-1086.78 919.43,-1076.76 912.43,-1076.79"/>
<text text-anchor="middle" x="840" y="-466.8" font-family="Times,serif" font-size="9.00">user_id</text>
</g>
<!-- error_log -->
<g id="node29" class="node">
<title>error_log</title>
<polygon fill="none" stroke="black" points="691,-237 691,-273 754,-273 754,-237 691,-237"/>
<text text-anchor="middle" x="722.5" y="-252.5" font-family="Times,serif" font-size="10.00">error_log</text>
</g>
<!-- feature_flag -->
<g id="node30" class="node">
<title>feature_flag</title>
<polygon fill="none" stroke="black" points="683.5,-182 683.5,-218 761.5,-218 761.5,-182 683.5,-182"/>
<text text-anchor="middle" x="722.5" y="-197.5" font-family="Times,serif" font-size="10.00">feature_flag</text>
</g>
<!-- report -->
<g id="node31" class="node">
<title>report</title>
<polygon fill="none" stroke="black" points="695.5,-347 695.5,-383 749.5,-383 749.5,-347 695.5,-347"/>
<text text-anchor="middle" x="722.5" y="-362.5" font-family="Times,serif" font-size="10.00">report</text>
</g>
<!-- report&#45;&gt;user -->
<g id="edge22" class="edge">
<title>report&#45;&gt;user</title>
<path fill="none" stroke="black" d="M749.66,-365.12C783.85,-366.83 842.81,-375.46 872,-413 913.24,-466.05 916.01,-952.89 916.05,-1076.55"/>
<polygon fill="black" stroke="black" points="912.55,-1076.73 916.05,-1086.73 919.55,-1076.73 912.55,-1076.73"/>
<text text-anchor="middle" x="840" y="-415.8" font-family="Times,serif" font-size="9.00">generated_by</text>
</g>
<!-- system_config -->
<g id="node32" class="node">
<title>system_config</title>
<polygon fill="none" stroke="black" points="678,-72 678,-108 767,-108 767,-72 678,-72"/>
<text text-anchor="middle" x="722.5" y="-87.5" font-family="Times,serif" font-size="10.00">system_config</text>
</g>
<!-- webhook_log -->
<g id="node33" class="node">
<title>webhook_log</title>
<polygon fill="none" stroke="black" points="681,-17 681,-53 764,-53 764,-17 681,-17"/>
<text text-anchor="middle" x="722.5" y="-32.5" font-family="Times,serif" font-size="10.00">webhook_log</text>
</g>
<!-- ai_dispute_cases -->
<g id="node34" class="node">
<title>ai_dispute_cases</title>
<polygon fill="none" stroke="black" points="26,-972 26,-1008 128,-1008 128,-972 26,-972"/>
<text text-anchor="middle" x="77" y="-987.5" font-family="Times,serif" font-size="10.00">ai_dispute_cases</text>
</g>
<!-- ai_dispute_verdicts -->
<g id="node35" class="node">
<title>ai_dispute_verdicts</title>
<polygon fill="none" stroke="black" points="19.5,-917 19.5,-953 134.5,-953 134.5,-917 19.5,-917"/>
<text text-anchor="middle" x="77" y="-932.5" font-family="Times,serif" font-size="10.00">ai_dispute_verdicts</text>
</g>
<!-- ai_grok_requests -->
<g id="node36" class="node">
<title>ai_grok_requests</title>
<polygon fill="none" stroke="black" points="25,-862 25,-898 129,-898 129,-862 25,-862"/>
<text text-anchor="middle" x="77" y="-877.5" font-family="Times,serif" font-size="10.00">ai_grok_requests</text>
</g>
<!-- ai_recommendations -->
<g id="node37" class="node">
<title>ai_recommendations</title>
<polygon fill="none" stroke="black" points="16,-807 16,-843 138,-843 138,-807 16,-807"/>
<text text-anchor="middle" x="77" y="-822.5" font-family="Times,serif" font-size="10.00">ai_recommendations</text>
</g>
<!-- ai_review_log -->
<g id="node38" class="node">
<title>ai_review_log</title>
<polygon fill="none" stroke="black" points="34,-752 34,-788 120,-788 120,-752 34,-752"/>
<text text-anchor="middle" x="77" y="-767.5" font-family="Times,serif" font-size="10.00">ai_review_log</text>
</g>
<!-- ai_review_log&#45;&gt;dispute -->
<g id="edge2" class="edge">
<title>ai_review_log&#45;&gt;dispute</title>
<path fill="none" stroke="black" d="M120.02,-770C161.35,-770 223.84,-770 263.25,-770"/>
<polygon fill="black" stroke="black" points="263.48,-773.5 273.48,-770 263.48,-766.5 263.48,-773.5"/>
<text text-anchor="middle" x="180.5" y="-772.8" font-family="Times,serif" font-size="9.00">dispute_id</text>
</g>
<!-- ai_risk_flags -->
<g id="node39" class="node">
<title>ai_risk_flags</title>
<polygon fill="none" stroke="black" points="37,-697 37,-733 117,-733 117,-697 37,-697"/>
<text text-anchor="middle" x="77" y="-712.5" font-family="Times,serif" font-size="10.00">ai_risk_flags</text>
</g>
<!-- ai_shift_forecasts -->
<g id="node40" class="node">
<title>ai_shift_forecasts</title>
<polygon fill="none" stroke="black" points="25,-642 25,-678 129,-678 129,-642 25,-642"/>
<text text-anchor="middle" x="77" y="-657.5" font-family="Times,serif" font-size="10.00">ai_shift_forecasts</text>
</g>
</g>
</svg>
